<?xml version="1.0" encoding="utf-8"?>
<!-- Generator: Adobe Illustrator 18.1.1, SVG Export Plug-In . SVG Version: 6.00 Build 0)  -->
<!DOCTYPE svg PUBLIC "-//W3C//DTD SVG 1.1//EN" "http://www.w3.org/Graphics/SVG/1.1/DTD/svg11.dtd">
<svg version="1.1" id="Layer_1" xmlns="http://www.w3.org/2000/svg" xmlns:xlink="http://www.w3.org/1999/xlink" x="0px" y="0px"
	 viewBox="43.3 387.5 1207.6 954.5" enable-background="new 43.3 387.5 1207.6 954.5" xml:space="preserve">
<g>
	<g>
		<path d="M824.1,739.8h-17.4c0-94.1-76.5-170.6-170.6-170.6s-170.6,76.5-170.6,170.6h-17.4c0-103.6,84.3-188,188-188
			S824.1,636.2,824.1,739.8z"/>
		<path d="M910.9,739.8h-17.4c0-141.9-115.5-257.4-257.4-257.4S378.7,597.9,378.7,739.8h-17.4c0-151.5,123.3-274.7,274.7-274.7
			S910.9,588.3,910.9,739.8z"/>
		<path d="M988.4,739.8h-17.4c0-184.7-150.3-335-335-335s-335,150.3-335,335h-17.4c0-194.3,158-352.3,352.3-352.3
			S988.4,545.5,988.4,739.8z"/>
		<g>
			<g>
				<path fill="#BEBEBE" d="M538.9,744.2c0-53.7,43.5-97.2,97.2-97.2s97.2,43.5,97.2,97.2"/>
				<path fill="#231F20" d="M733.3,752.8c-4.8,0-8.7-3.9-8.7-8.7c0-48.8-39.7-88.5-88.5-88.5s-88.5,39.7-88.5,88.5
					c0,4.8-3.9,8.7-8.7,8.7c-4.8,0-8.7-3.9-8.7-8.7c0-58.4,47.5-105.9,105.9-105.9S742,685.8,742,744.2
					C742,748.9,738.1,752.8,733.3,752.8z"/>
			</g>
			<path fill="#DFE1E3" d="M646.5,656.3c-3.4-0.4-6.9-0.6-10.4-0.6c-48.8,0-88.5,39.7-88.5,88.5h13.9
				C561.5,698.9,602.6,661.4,646.5,656.3z"/>
			<g>
				<rect x="538.9" y="744.2" fill="#BEBEBE" width="194.4" height="383.6"/>
				<path fill="#231F20" d="M733.3,1136.4H538.9c-4.8,0-8.7-3.9-8.7-8.7V744.2c0-4.8,3.9-8.7,8.7-8.7h194.4c4.8,0,8.7,3.9,8.7,8.7
					v383.6C742,1132.5,738.1,1136.4,733.3,1136.4z M547.6,1119h177V752.8h-177V1119z"/>
			</g>
			<rect x="547.6" y="752.8" fill="#DFE1E3" width="13" height="366.2"/>
			<g>
				<rect x="677.8" y="744.2" fill="#BEBEBE" width="55.5" height="383.6"/>
				<path fill="#231F20" d="M733.3,1136.4h-55.5c-4.8,0-8.7-3.9-8.7-8.7V744.2c0-4.8,3.9-8.7,8.7-8.7h55.5c4.8,0,8.7,3.9,8.7,8.7
					v383.6C742,1132.5,738.1,1136.4,733.3,1136.4z M686.5,1119h38.2V752.8h-38.2V1119z"/>
			</g>
		</g>
		<g>
			<g>
				<g>
					<rect x="735.8" y="923.8" fill="#DE393A" width="298.5" height="203.9"/>
					<path fill="#231F20" d="M1034.3,1136.4H735.8c-4.8,0-8.7-3.9-8.7-8.7V923.8c0-4.8,3.9-8.7,8.7-8.7h298.5c4.8,0,8.7,3.9,8.7,8.7
						v203.9C1043,1132.5,1039.1,1136.4,1034.3,1136.4z M744.5,1119h281.2V932.5H744.5V1119z"/>
				</g>
				<g>
					<rect x="813.9" y="1032.3" fill="#D3A763" width="142.3" height="95.5"/>
					<path fill="#231F20" d="M956.2,1136.4H813.9c-4.8,0-8.7-3.9-8.7-8.7v-95.5c0-4.8,3.9-8.7,8.7-8.7h142.3c4.8,0,8.7,3.9,8.7,8.7
						v95.5C964.9,1132.5,961,1136.4,956.2,1136.4z M822.6,1119h125v-78.1h-125V1119z"/>
				</g>
				<rect x="744.4" y="951.6" fill="#CB3534" width="281.2" height="20"/>
				<g>
					<rect x="850.4" y="906.4" width="69.4" height="87"/>
					<path fill="#231F20" d="M919.8,1002.1h-69.4c-4.8,0-8.7-3.9-8.7-8.7v-87c0-4.8,3.9-8.7,8.7-8.7h69.4c4.8,0,8.7,3.9,8.7,8.7v87
						C928.5,998.2,924.6,1002.1,919.8,1002.1z M859,984.8h52.1v-69.7H859V984.8z"/>
				</g>
				<g>
					<polygon fill="#BEBEBE" points="684.8,944.4 734.6,833.5 885.1,778.2 1035.4,833.5 1085.2,944.4 					"/>
					<path fill="#231F20" d="M1085.2,953.1C1085.2,953.1,1085.2,953.1,1085.2,953.1H684.8c-2.9,0-5.7-1.5-7.3-4
						c-1.6-2.5-1.8-5.6-0.6-8.3L726.7,830c1-2.1,2.7-3.8,4.9-4.6l150.5-55.3c1.9-0.7,4.1-0.7,6,0l150.3,55.3c2.2,0.8,4,2.5,4.9,4.6
						l49.4,109.9c0.8,1.3,1.3,2.9,1.3,4.5C1093.9,949.2,1090,953.1,1085.2,953.1z M698.2,935.7h373.6l-42.8-95.3l-143.9-52.9
						L741,840.4L698.2,935.7z"/>
				</g>
				<g>
					<polygon fill="#9C9D9E" points="700.9,909.4 684.8,944.4 1085.2,944.4 1069,909.4 					"/>
					<path fill="#231F20" d="M1085.2,953.1H684.8c-3,0-5.7-1.5-7.3-4c-1.6-2.5-1.8-5.6-0.6-8.3l16.1-34.9c1.4-3.1,4.5-5,7.9-5H1069
						c3.4,0,6.5,2,7.9,5l16.1,34.9c1.2,2.7,1,5.8-0.6,8.3C1090.9,951.6,1088.1,953.1,1085.2,953.1z M698.3,935.7h373.3l-8.1-17.6
						h-357L698.3,935.7z"/>
				</g>
				<g>
					<line fill="#FFFFFF" x1="956.2" y1="1127.7" x2="813.9" y2="1032.3"/>
					<path fill="#231F20" d="M956.2,1136.4c-1.7,0-3.3-0.5-4.8-1.5l-142.3-95.5c-4-2.7-5-8.1-2.4-12c2.7-4,8.1-5,12-2.4l142.3,95.5
						c4,2.7,5,8.1,2.4,12C961.8,1135,959,1136.4,956.2,1136.4z"/>
				</g>
				<g>
					<line fill="#FFFFFF" x1="813.9" y1="1127.7" x2="956.2" y2="1032.3"/>
					<path fill="#231F20" d="M813.9,1136.4c-2.8,0-5.5-1.3-7.2-3.8c-2.7-4-1.6-9.4,2.4-12l142.3-95.5c4-2.7,9.4-1.6,12,2.4
						c2.7,4,1.6,9.4-2.4,12l-142.3,95.5C817.3,1135.9,815.6,1136.4,813.9,1136.4z"/>
				</g>
			</g>
			<g>
				<g>
					<rect x="325" y="826.6" fill="#DBDBDA" width="149.3" height="55.5"/>
					<path fill="#231F20" d="M474.3,890.8H325c-4.8,0-8.7-3.9-8.7-8.7v-55.5c0-4.8,3.9-8.7,8.7-8.7h149.3c4.8,0,8.7,3.9,8.7,8.7
						v55.5C482.9,886.9,479.1,890.8,474.3,890.8z M333.7,873.5h131.9v-38.2H333.7V873.5z"/>
				</g>
				<g>
					<g>
						<rect x="250.5" y="960.7" fill="#FFFFFF" width="289.7" height="167"/>
						<path fill="#231F20" d="M540.2,1136.4H250.5c-4.8,0-8.7-3.9-8.7-8.7v-167c0-4.8,3.9-8.7,8.7-8.7h289.7c4.8,0,8.7,3.9,8.7,8.7
							v167C548.9,1132.5,545,1136.4,540.2,1136.4z M259.2,1119h272.4V969.3H259.2V1119z"/>
					</g>
					<g>
						<polygon fill="#BEBEBE" points="325,861.3 467.3,861.3 582.8,965.4 207.9,965.4 						"/>
						<path fill="#231F20" d="M582.8,974.1C582.8,974.1,582.8,974.1,582.8,974.1H207.9c-3.6,0-6.8-2.2-8.1-5.6
							c-1.3-3.4-0.3-7.2,2.3-9.6l117.1-104.1c1.6-1.4,3.6-2.2,5.8-2.2h142.3c2.1,0,4.2,0.8,5.8,2.2L588,958.4c2.2,1.6,3.6,4.1,3.6,7
							C591.5,970.2,587.6,974.1,582.8,974.1z M230.7,956.8h329.5L464,870H328.3L230.7,956.8z"/>
					</g>
					<rect x="259.2" y="973.9" fill="#E6E7E8" width="272.4" height="10.8"/>
					<g>
						<g>
							<rect x="372.6" y="1055.6" width="45.1" height="72.1"/>
							<path fill="#231F20" d="M417.7,1136.4h-45.1c-4.8,0-8.7-3.9-8.7-8.7v-72.1c0-4.8,3.9-8.7,8.7-8.7h45.1c4.8,0,8.7,3.9,8.7,8.7
								v72.1C426.4,1132.5,422.5,1136.4,417.7,1136.4z M381.3,1119H409v-54.8h-27.7V1119z"/>
						</g>
						<g>
							<g>
								<rect x="291.8" y="996.7" fill="#34A2DB" width="45.3" height="44.4"/>
								<path fill="#231F20" d="M337.1,1049.7h-45.3c-4.8,0-8.7-3.9-8.7-8.7v-44.4c0-4.8,3.9-8.7,8.7-8.7h45.3
									c4.8,0,8.7,3.9,8.7,8.7v44.4C345.8,1045.8,341.9,1049.7,337.1,1049.7z M300.5,1032.4h27.9v-27h-27.9V1032.4z"/>
							</g>
							<g>
								<polygon fill="#2F95C8" points="300.5,1005.4 300.5,1018.9 314.5,1018.9 328.4,1018.9 328.4,1005.4 								"/>
							</g>
							<g>
								<rect x="453.2" y="996.7" fill="#34A2DB" width="45.3" height="44.4"/>
								<path fill="#231F20" d="M498.5,1049.7h-45.3c-4.8,0-8.7-3.9-8.7-8.7v-44.4c0-4.8,3.9-8.7,8.7-8.7h45.3
									c4.8,0,8.7,3.9,8.7,8.7v44.4C507.2,1045.8,503.3,1049.7,498.5,1049.7z M461.9,1032.4h27.9v-27h-27.9V1032.4z"/>
							</g>
							<g>
								<polygon fill="#2F95C8" points="461.9,1005.4 461.9,1018.9 475.8,1018.9 489.8,1018.9 489.8,1005.4 								"/>
							</g>
						</g>
					</g>
				</g>
			</g>
		</g>
	</g>
	<g>
		<path stroke="#231F20" stroke-width="3.4711" stroke-miterlimit="10" d="M54.5,1332c-9.8-10.8-9.4-30.8-9.4-70.2
			c0-38.3-0.2-58.1,8.5-69.1c5.2-6.5,14.6-9,27.7-9c8.3,0,16.2,1.5,18.5,2.1l-5,25c-3.3-0.8-9.6-1.3-12.3-1.3
			c-10.8,0-10.8,4.4-10.8,52.9c0,50.2,0.2,53.3,11.5,53.3c3.3,0,10.2-1.3,12.1-1.9l5.4,22.7c-4.6,1.5-11.7,3.5-19.6,3.5
			C68.2,1340.1,59.5,1337.8,54.5,1332z"/>
		<path stroke="#231F20" stroke-width="3.4711" stroke-miterlimit="10" d="M128.6,1332.4c-8.7-10.4-9.2-30.2-9.2-70.6
			c0-38.7,0.4-58.5,8.5-69.4c5-6.2,13.3-9,25.8-9c12.5,0,21,2.7,25.6,8.5c8.5,10.6,8.7,30.4,8.7,69.8c0,43.1-0.2,61.9-9,71.4
			c-4.6,5.2-12.9,7.1-25.4,7.1C141.5,1340.3,133.2,1338,128.6,1332.4z M162.1,1262.4c0-50.4,0-53.3-8.3-53.3
			c-8.1,0-8.1,2.9-8.1,53.3c0,50.8,0,53.5,8.1,53.5C162.1,1315.9,162.1,1313.2,162.1,1262.4z"/>
		<path stroke="#231F20" stroke-width="3.4711" stroke-miterlimit="10" d="M211.9,1184.7h27.5l10.8,49.6l4.4,22.1v-71.6H279V1339
			h-24.6l-14-59.6l-4.4-20.4v80h-24.2V1184.7z"/>
		<path stroke="#231F20" stroke-width="3.4711" stroke-miterlimit="10" d="M309.4,1184.7h27.5l10.8,49.6l4.4,22.1v-71.6h24.4V1339
			h-24.6l-14-59.6l-4.4-20.4v80h-24.2V1184.7z"/>
		<path stroke="#231F20" stroke-width="3.4711" stroke-miterlimit="10" d="M402.7,1184.7h51.7v25.2h-25.8v38.5h25.2v24.8h-25.2v41.9
			h25.8v24h-51.7V1184.7z"/>
		<path stroke="#231F20" stroke-width="3.4711" stroke-miterlimit="10" d="M484.7,1332c-9.8-10.8-9.4-30.8-9.4-70.2
			c0-38.3-0.2-58.1,8.5-69.1c5.2-6.5,14.6-9,27.7-9c8.3,0,16.2,1.5,18.5,2.1l-5,25c-3.3-0.8-9.6-1.3-12.3-1.3
			c-10.8,0-10.8,4.4-10.8,52.9c0,50.2,0.2,53.3,11.5,53.3c3.3,0,10.2-1.3,12.1-1.9l5.4,22.7c-4.6,1.5-11.7,3.5-19.6,3.5
			C498.5,1340.1,489.7,1337.8,484.7,1332z"/>
		<path stroke="#231F20" stroke-width="3.4711" stroke-miterlimit="10" d="M564.7,1209.5h-17.5v-24.8h61.6v24.8h-18.1V1339h-26
			V1209.5z"/>
		<path fill="#DE393A" d="M636.1,1332c-9.8-10.8-9.4-30.8-9.4-70.2c0-38.3-0.2-58.1,8.5-69.1c5.2-6.5,14.6-9,27.7-9
			c8.3,0,16.2,1.5,18.5,2.1l-5,25c-3.3-0.8-9.6-1.3-12.3-1.3c-10.8,0-10.8,4.4-10.8,52.9c0,50.2,0.2,53.3,11.5,53.3
			c3.3,0,10.2-1.3,12.1-1.9l5.4,22.7c-4.6,1.5-11.7,3.5-19.6,3.5C649.9,1340.1,641.1,1337.8,636.1,1332z"/>
		<path fill="#DE393A" d="M715.3,1183.9h30L768,1339h-26.7l-2.9-22.9h-17.3l-2.7,22.9h-25.6L715.3,1183.9z M724,1290.9h11.5
			l-2.9-23.9l-2.7-31l-2.9,31L724,1290.9z"/>
		<path fill="#DE393A" d="M775.7,1338.2l5.6-24c4.6,1,13.1,1.9,17.5,1.9c10.2,0,12.1-5.4,7.5-17.5l-24-63.9
			c-8.1-21.7-6.5-51.2,29.6-51.2c5.6,0,14.2,0.4,19.8,1.5l-6,25.2c-3.3-0.8-9-1-11.7-1c-11,0-11.7,7.5-8.1,17.1l22.3,59.6
			c8.7,23.3,12.1,54.8-27.9,54.8C791.5,1340.5,781.5,1339.5,775.7,1338.2z"/>
		<path fill="#DE393A" d="M865,1183.9h30l22.7,155.2H891l-2.9-22.9h-17.3l-2.7,22.9h-25.6L865,1183.9z M873.8,1290.9h11.5l-2.9-23.9
			l-2.7-31l-2.9,31L873.8,1290.9z"/>
		<path fill="#DE393A" d="M930.2,1184.7h27.5l10.8,49.6l4.4,22.1v-71.6h24.4V1339h-24.6l-14-59.6l-4.4-20.4v80h-24.2V1184.7z"/>
		<path fill="#DE393A" d="M1026,1332.4c-8.7-10.4-9.2-30.2-9.2-70.6c0-38.7,0.4-58.5,8.5-69.4c5-6.2,13.3-9,25.8-9s21,2.7,25.6,8.5
			c8.5,10.6,8.7,30.4,8.7,69.8c0,43.1-0.2,61.9-9,71.4c-4.6,5.2-12.9,7.1-25.4,7.1C1038.9,1340.3,1030.6,1338,1026,1332.4z
			 M1059.5,1262.4c0-50.4,0-53.3-8.3-53.3c-8.1,0-8.1,2.9-8.1,53.3c0,50.8,0,53.5,8.1,53.5
			C1059.5,1315.9,1059.5,1313.2,1059.5,1262.4z"/>
		<path fill="#DE393A" d="M1095.6,1184.7h26.4l8.1,73.5l2.9,35.2l2.9-35.2l7.9-73.5h25.8l-20.4,155.2H1116L1095.6,1184.7z"/>
		<path fill="#DE393A" d="M1198.2,1183.9h30l22.7,155.2h-26.7l-2.9-22.9h-17.3l-2.7,22.9h-25.6L1198.2,1183.9z M1207,1290.9h11.5
			l-2.9-23.9l-2.7-31l-2.9,31L1207,1290.9z"/>
	</g>
</g>
</svg>
