<?xml version="1.0" encoding="utf-8"?>
<!-- Generator: Adobe Illustrator 18.1.1, SVG Export Plug-In . SVG Version: 6.00 Build 0)  -->
<!DOCTYPE svg PUBLIC "-//W3C//DTD SVG 1.1//EN" "http://www.w3.org/Graphics/SVG/1.1/DTD/svg11.dtd">
<svg version="1.1" id="Layer_1" xmlns="http://www.w3.org/2000/svg" xmlns:xlink="http://www.w3.org/1999/xlink" x="0px" y="0px"
	 viewBox="105.6 290.5 1074 898.8" enable-background="new 105.6 290.5 1074 898.8" xml:space="preserve">
<g>
	<path d="M856,713.7h-20.7c0-112.8-92-204.8-204.8-204.8s-205.4,91.4-205.4,204.8h-20.7c0-124.4,101.1-225.5,225.5-225.5
		S856,589.2,856,713.7z"/>
	<path d="M959.7,713.7H939c0-170.4-138.7-309.1-309.1-309.1S320.8,543.2,320.8,713.7H300c0-182.1,147.7-329.8,329.8-329.8
		S959.7,531.6,959.7,713.7z"/>
	<path d="M1053,713.7h-20.7c0-221.6-180.1-402.4-401.8-402.4S228.7,491.4,228.7,713.7h-21.4c0-233.3,189.2-423.1,422.5-423.1
		S1053,480.4,1053,713.7z"/>
	<g>
		<g>
			<path fill="#BFBEBE" d="M513.2,718.8c0-64.2,52.5-116.6,116.6-116.6s116.6,52.5,116.6,116.6"/>
			<path d="M746.5,729.2c-5.8,0-10.4-4.5-10.4-10.4c0-58.3-48-106.3-106.3-106.3c-58.3,0-106.3,47.3-106.3,106.3
				c0,5.8-4.5,10.4-10.4,10.4c-5.8,0-10.4-4.5-10.4-10.4c0-70,57-127,127-127s127,57,127,127C756.9,724.7,752.3,729.2,746.5,729.2z"
				/>
		</g>
		<path fill="#DFE1E3" d="M642.8,613.2c-3.9-0.6-8.4-0.6-12.3-0.6c-58.3,0-106.3,48-106.3,106.3h16.8
			C540.4,664.4,589.7,619.7,642.8,613.2z"/>
		<g>
			<rect x="513.2" y="718.8" fill="#BFBEBE" width="233.3" height="460.7"/>
			<path d="M746.5,1189.3H513.2c-5.8,0-10.4-4.5-10.4-10.4V718.8c0-5.8,4.5-10.4,10.4-10.4h233.3c5.8,0,10.4,4.5,10.4,10.4v460.7
				C756.9,1184.8,752.3,1189.3,746.5,1189.3z M523.6,1168.6h212.5V729.2H523.6V1168.6z"/>
		</g>
		<rect x="523.6" y="729.2" fill="#DFE1E3" width="15.6" height="439.3"/>
		<g>
			<rect x="679.8" y="718.8" fill="#BFBEBE" width="66.7" height="460.7"/>
			<path d="M746.5,1189.3h-66.1c-5.8,0-10.4-4.5-10.4-10.4V718.8c0-5.8,4.5-10.4,10.4-10.4h66.7c5.8,0,10.4,4.5,10.4,10.4v460.7
				C756.9,1184.8,752.3,1189.3,746.5,1189.3z M690.8,1168.6h46V729.2h-46V1168.6z"/>
		</g>
	</g>
	<g>
		<g>
			<g>
				<rect x="749.7" y="934.6" fill="#DD3A3A" width="358.3" height="244.9"/>
				<path d="M1108.1,1189.3H749.7c-5.8,0-10.4-4.5-10.4-10.4V934.6c0-5.8,4.5-10.4,10.4-10.4h358.3c5.8,0,10.4,4.5,10.4,10.4v244.9
					C1118.4,1184.8,1113.9,1189.3,1108.1,1189.3z M760.1,1168.6h337.6V945H760.1V1168.6L760.1,1168.6z"/>
			</g>
			<g>
				<rect x="843.7" y="1064.9" fill="#D3A762" width="171.1" height="114.7"/>
				<path d="M1014.1,1189.3H843c-5.8,0-10.4-4.5-10.4-10.4v-114.7c0-5.8,4.5-10.4,10.4-10.4h171.1c5.8,0,10.4,4.5,10.4,10.4v114.7
					C1024.5,1184.8,1020,1189.3,1014.1,1189.3z M854.1,1168.6h149.7v-94H854.1V1168.6z"/>
			</g>
			<rect x="760.1" y="967.7" fill="#CC3534" width="337.6" height="24"/>
			<g>
				<rect x="887.1" y="913.2" width="83.6" height="104.3"/>
				<path d="M970.7,1028.6h-83.6c-5.8,0-10.4-4.5-10.4-10.4v-105c0-5.8,4.5-10.4,10.4-10.4h83.6c5.8,0,10.4,4.5,10.4,10.4v104.3
					C981.1,1024.1,976.5,1028.6,970.7,1028.6z M897.5,1007.9h62.2v-83.6h-62.2V1007.9z"/>
			</g>
			<g>
				<polygon fill="#BFBEBE" points="688.2,959.3 748.4,825.8 928.6,759.7 1109.4,825.8 1169,959.3 				"/>
				<path d="M1169,969.6L1169,969.6H688.2c-3.2,0-7.1-1.9-8.4-4.5c-1.9-3.2-1.9-6.5-0.6-9.7l59.6-133.5c1.3-2.6,3.2-4.5,5.8-5.8
					L925.3,750c2.6-0.6,5.2-0.6,7.1,0l180.1,66.1c2.6,0.6,4.5,3.2,5.8,5.2l59.6,132.2c0.6,1.3,1.3,3.2,1.3,5.2
					C1179.4,965.1,1174.8,969.6,1169,969.6z M704.4,948.9h448.4l-51.2-114.7l-173-63.5l-173,63.5L704.4,948.9z"/>
			</g>
			<g>
				<polygon fill="#9D9D9E" points="707.6,917.1 688.2,959.3 1169,959.3 1149.6,917.1 				"/>
				<path d="M1169,969.6H688.2c-3.2,0-7.1-1.9-9.1-4.5c-1.9-3.2-1.9-6.5-0.6-9.7l19.4-42.1c1.9-3.9,5.2-5.8,9.7-5.8h441.9
					c3.9,0,7.8,2.6,9.7,5.8l19.4,42.1c1.3,3.2,1.3,7.1-0.6,9.7C1176.1,967.7,1172.9,969.6,1169,969.6z M705,948.9h447.8l-9.7-21.4
					H714.7L705,948.9z"/>
			</g>
			<g>
				<line fill="none" x1="1014.1" y1="1178.9" x2="843.7" y2="1064.9"/>
				<path d="M1014.1,1189.3c-1.9,0-3.9-0.6-5.8-1.9l-171.1-114.7c-4.5-3.2-5.8-9.7-2.6-14.3c3.2-4.5,9.7-5.8,14.3-2.6l171.1,114.7
					c4.5,3.2,5.8,9.7,2.6,14.3C1021.2,1188,1017.4,1189.3,1014.1,1189.3z"/>
			</g>
			<g>
				<line fill="none" x1="843.7" y1="1178.9" x2="1014.1" y2="1064.9"/>
				<path d="M843.7,1189.3c-3.2,0-6.5-1.3-8.4-4.5c-3.2-4.5-1.9-11,2.6-14.3l171.1-114.7c4.5-3.2,11-1.9,14.3,2.6
					c3.2,4.5,1.9,11-2.6,14.3l-171.1,114.7C847.6,1189.3,845.6,1189.3,843.7,1189.3z"/>
			</g>
		</g>
		<g>
			<g>
				<rect x="256.6" y="818" fill="#DCDBDB" width="178.8" height="66.7"/>
				<path d="M436.1,894.5H256.6c-5.8,0-10.4-4.5-10.4-10.4V818c0-5.8,4.5-10.4,10.4-10.4h178.8c5.8,0,10.4,4.5,10.4,10.4v66.7
					C446.5,889.9,441.3,894.5,436.1,894.5z M267,873.7h158.1v-45.4H267V873.7z"/>
			</g>
			<g>
				<g>
					<rect x="167.2" y="978.7" fill="#FFFFFF" width="348" height="200.2"/>
					<path d="M515.2,1189.3h-348c-5.8,0-10.4-4.5-10.4-10.4V978.7c0-5.8,4.5-10.4,10.4-10.4h348c5.8,0,10.4,4.5,10.4,10.4v200.2
						C525.5,1184.8,521,1189.3,515.2,1189.3z M177.6,1168.6h327.2V989.1H177.6V1168.6z"/>
				</g>
				<g>
					<polygon fill="#BFBEBE" points="256.6,859.5 427.7,859.5 566.4,984.5 116,984.5 					"/>
					<path d="M566.4,994.9L566.4,994.9H116c-4.5,0-8.4-2.6-9.7-6.5s-0.6-8.4,2.6-11.7l140.6-125.1c1.9-1.9,4.5-2.6,7.1-2.6h171.1
						c2.6,0,5.2,0.6,7.1,2.6l138,124.4c2.6,1.9,4.5,5.2,4.5,8.4C576.7,990.4,572.2,994.9,566.4,994.9z M143.2,974.2h395.3
						L423.1,869.8H260.5L143.2,974.2z"/>
				</g>
				<rect x="177.6" y="994.2" fill="#E6E7E8" width="327.2" height="13"/>
				<g>
					<g>
						<rect x="313.6" y="1092.7" width="53.8" height="86.8"/>
						<path d="M368.1,1189.3h-53.8c-5.8,0-10.4-4.5-10.4-10.4v-86.8c0-5.8,4.5-10.4,10.4-10.4h53.8c5.8,0,10.4,4.5,10.4,10.4v86.8
							C378.4,1184.8,373.9,1189.3,368.1,1189.3z M324,1168.6h33v-65.4h-33V1168.6z"/>
					</g>
					<g>
						<g>
							<rect x="217.1" y="1022.1" fill="#35A3DC" width="54.4" height="53.1"/>
							<path d="M270.9,1085.6h-54.4c-5.8,0-10.4-4.5-10.4-10.4v-53.1c0-5.8,4.5-10.4,10.4-10.4h54.4c5.8,0,10.4,4.5,10.4,10.4v53.1
								C281.9,1081.1,276.7,1085.6,270.9,1085.6z M227.4,1064.9h33.7v-32.4h-33.7V1064.9z"/>
						</g>
						<g>
							<polygon fill="#3095C9" points="227.4,1032.5 227.4,1048.7 244.3,1048.7 260.5,1048.7 260.5,1032.5 							"/>
						</g>
						<g>
							<rect x="410.2" y="1022.1" fill="#35A3DC" width="54.4" height="53.1"/>
							<path d="M464.6,1085.6h-54.4c-5.8,0-10.4-4.5-10.4-10.4v-53.1c0-5.8,4.5-10.4,10.4-10.4h54.4c5.8,0,10.4,4.5,10.4,10.4v53.1
								C475,1081.1,470.4,1085.6,464.6,1085.6z M421.2,1064.9h33.7v-32.4h-33.7V1064.9z"/>
						</g>
						<g>
							<polygon fill="#3095C9" points="421.2,1032.5 421.2,1048.7 437.4,1048.7 454.2,1048.7 454.2,1032.5 							"/>
						</g>
					</g>
				</g>
			</g>
		</g>
	</g>
</g>
</svg>
